<svg xmlns="http://www.w3.org/2000/svg" viewBox="0 0 32 32" role="img" aria-label="LLM blocked">
  <rect width="32" height="32" rx="8" fill="#e9f4f7"/>
  <path d="M16 6.7v2.1" fill="none" stroke="#2a5770" stroke-width="1.7" stroke-linecap="round"/>
  <circle cx="16" cy="5.8" r="1.4" fill="#2a5770"/>
  <path d="M9.6 11.2h12.8a2.4 2.4 0 0 1 2.4 2.4v6a2.4 2.4 0 0 1-2.4 2.4H9.6a2.4 2.4 0 0 1-2.4-2.4v-6a2.4 2.4 0 0 1 2.4-2.4Z" fill="#fdfefe" stroke="#2a5770" stroke-width="1.7"/>
  <circle cx="12.6" cy="16.2" r="1.35" fill="#2a5770"/>
  <circle cx="19.4" cy="16.2" r="1.35" fill="#2a5770"/>
  <path d="M13.1 19.1h5.8" fill="none" stroke="#2a5770" stroke-width="1.5" stroke-linecap="round"/>
  <path d="M7.3 15.2H5.4M26.6 15.2h-1.9" fill="none" stroke="#2a5770" stroke-width="1.6" stroke-linecap="round"/>
  <circle cx="16" cy="16" r="12.1" fill="none" stroke="#b8493d" stroke-width="2.2"/>
  <path d="M24.5 24.5 7.5 7.5" fill="none" stroke="#b8493d" stroke-width="2.5" stroke-linecap="round"/>
</svg>
